<svg
            xmlns="http://www.w3.org/2000/svg"
            viewBox="0 0 16 10"
            width="16"
            height="16"
            focusable="false"
            class="lazy-loaded"
          >
            <path
              d="M11 8.13a3.07 3.07 0 01-1.74-.53 4.89 4.89 0 000-5.18 3.12 3.12 0 013.48 5.18 3.18 3.18 0 01-1.74.53zM1.88 5A3.12 3.12 0 015 1.88a3.07 3.07 0 011.74.53 4.89 4.89 0 000 5.18 3.12 3.12 0 01-4.33-.85A3.07 3.07 0 011.88 5zM11 0a5 5 0 00-3 1 5 5 0 100 8 5 5 0 103-9z"
            ></path></svg>